<?xml version="1.0" encoding="UTF-8"?>
<!-- Generator: Adobe Illustrator 19.2.0, SVG Export Plug-In . SVG Version: 6.00 Build 0)  -->
<svg version="1.1" id="Calque_1" xmlns="http://www.w3.org/2000/svg" xmlns:xlink="http://www.w3.org/1999/xlink" x="0px" y="0px" viewBox="0 0 574.7 81.5" style="enable-background:new 0 0 574.7 81.5;" xml:space="preserve">
<style type="text/css">
	.st0{fill:#585657;}
	.st1{fill:#779EA9;}
	.st2{fill:none;}
	.st3{fill:#F3C6B0;}
	.st4{fill:none;stroke:#000000;stroke-width:1.3354;stroke-miterlimit:10;}
	.st5{fill:#AD9FA3;}
</style>
<g>
	<path class="st0" d="M158.6,31c0,1-0.6,1.7-1.7,2c-1.2,0.3-3.8,0.6-7.9,0.6c-1.7,0-4.3,0.1-7.7,0.2c0.3,5.3,0.5,8.4,0.8,9.1   c0.1,0.5,1.7,0.7,4.7,0.7c4.9,0,7.4,0.7,7.5,2.2c0,0.6-0.3,1.1-0.9,1.7c-0.4,0.4-1,0.6-1.6,0.7c-0.7,0.1-2.2,0-4.5-0.1   c-1.2-0.1-2.9-0.2-5.1-0.4c0.2,5.7,0.4,8.8,0.8,9.3c0,0.2,2.5,0.2,7.6,0.1c5.1-0.1,8,0.3,8.6,1.2c0.4,0.5,0.6,1,0.6,1.6   c0,0.4-0.1,0.8-0.3,1.2c-0.4,1.1-1.7,1.6-3.8,1.5c-2.1,0-4,0-5.7,0.1c-1.2,0-2.3,0.1-3.3,0.1c-3.4,0-5.5-0.4-6.3-1.1   c-1-0.3-1.6-1.5-1.7-3.4c-0.1-0.5-0.2-1.4-0.3-2.9c-0.9-12.1-1.3-19.7-1.3-22.9c0-0.9,0-1.4,0.1-1.6c0.3-0.6,0.7-1.1,1.5-1.4   c0.4-0.1,2.1-0.2,5.2-0.2c1.2,0,2.6,0,4.3,0c5.8,0.1,9,0.3,9.7,0.5C158.3,30.1,158.6,30.4,158.6,31z"/>
	<path class="st0" d="M165.3,61.5c-0.9,0-1.5-1.5-1.7-4.4c0-0.6-0.1-1.3-0.1-2c0-2.5,0.3-5.3,0.8-8.5c0.5-3.5,0.8-6.6,0.8-9.3   c0-2.3,0.1-3.6,0.2-4c0.1-0.4,0.5-0.7,1.2-0.9c0.6-0.2,1-0.1,1.5,0.1c0.5,0.3,1.2,0.9,2,1.9c0.8,0.9,2.9,3.3,6.4,7.2   c3.5,3.9,6,6.6,7.3,8.1c0.3-11.2,0.6-17.4,0.9-18.3c0.3-0.4,0.9-0.6,1.7-0.6h0.1c0.8,0,1.3,0.2,1.6,0.6c0.1,0.4,0.3,2.6,0.4,6.8   c0.1,4.2,0.2,8.4,0.3,12.7c0.1,4.3,0.1,6.6,0.2,7c0,0.5,0.1,0.9,0.1,1.2c0,0.5,0,0.8-0.1,1c-0.1,0.3-0.5,0.5-1.2,0.6   c-0.6,0-1.1-0.1-1.5-0.4c-0.4-0.3-1-0.9-1.7-1.9c-3.9-5.6-8.8-11.5-14.9-17.7c-0.1,1-0.4,2.6-0.7,4.9c-0.3,2.2-0.6,4.2-0.9,6   c-0.2,1.8-0.4,3.3-0.4,4.5c-0.2,2.2-0.5,3.7-0.8,4.5C166.4,61.1,165.9,61.5,165.3,61.5z"/>
	<path class="st0" d="M229.5,33.9c0.2-0.4,0.6-0.6,1.3-0.6c0.6,0,1.1,0.2,1.6,0.6c0.3,0.4,0.4,0.9,0.4,1.5c0,0.4-0.1,0.9-0.2,1.4   c-0.3,1.4-1.3,4.2-3,8.6c-2.3,5.6-3.7,9.4-4.2,11.4c-0.6,1.9-1.1,3.1-1.5,3.6c-0.3,0.3-0.8,0.5-1.5,0.5c-0.1,0-0.3,0-0.4,0   c-0.9-0.1-1.4-0.4-1.7-0.9c-1.1-2.4-2.5-5.7-4.2-9.9c-1.7-4.2-2.9-7.2-3.8-9.1c-1.3-2.7-1.9-4.6-1.9-5.5c0-0.1,0-0.2,0.1-0.3   c0.1-0.7,0.4-1.1,1-1.3c0.6-0.2,1.2,0,1.8,0.4c0.5,0.4,1.4,1.9,2.6,4.3c1.2,2.4,2.3,4.6,3.1,6.8c0.7,2,1.7,4.3,3,6.8   c0.3-0.9,1.1-2.8,2.3-5.8c1.2-3,2.2-5.7,3.1-8.1C228.4,36,229.1,34.5,229.5,33.9z"/>
	<path class="st0" d="M264.2,52.6c-1,3.8-3.4,6.7-7,8.5c-2.1,1.1-4.4,1.6-6.7,1.6c-1.7,0-3.5-0.3-5.3-0.9c-2.3-0.7-4.6-3.1-6.7-7.2   c-0.7-1.3-1.1-2.4-1.3-3.3c-0.2-0.9-0.3-2.1-0.3-3.8c0-2.4,0.2-4.3,0.5-5.8c0.4-1.4,1.1-2.9,2.1-4.5c1-1.6,2-2.7,2.9-3.5   c0.9-0.7,1.9-1.3,3.2-1.9c1.3-0.5,2.9-0.7,4.9-0.8c0.2,0,0.4,0,0.6,0c1.7,0,3.2,0.2,4.5,0.5c1.6,0.5,3.2,1.6,4.7,3.3   c1.5,1.7,2.6,3.6,3.3,5.8c0.5,1.9,0.9,4,0.9,6.2c0,0.5,0.1,1,0.1,1.5C264.7,50.1,264.5,51.5,264.2,52.6z M253.9,35.9   c-1.1-0.3-2.2-0.4-3.1-0.4c-2.2,0-4.2,0.7-5.8,2.2c-2.4,2.2-3.6,5.5-3.6,9.7c0,0.1,0,0.2,0,0.3c0,1.8,0.5,3.7,1.5,5.7   c1.1,2,2.3,3.4,3.6,4.2c1.2,0.6,2.4,0.9,3.7,0.9c1.1,0,2.2-0.2,3.4-0.6c2.7-0.9,4.5-2.3,5.6-4.3c0.6-1.1,0.9-2.8,1-5.3   c0-0.4,0-0.7,0.1-1.1c0-2-0.2-3.7-0.6-5c-0.5-1.4-1.2-2.8-2.3-4C256.1,36.9,255,36.2,253.9,35.9z"/>
	<path class="st0" d="M269.8,30.1c0.2-0.4,0.5-0.6,0.9-0.6c0.2,0,0.4,0,0.7,0.1c0.7,0.3,1.2,0.9,1.3,1.7c0.3,1.4,0.4,5.9,0.4,13.6   c0,0.6,0,1.1,0,1.7c0,8.7-0.2,13.2-0.6,13.6c-0.5,0.4-1,0.6-1.5,0.6H271c-0.6,0-1.1-0.2-1.4-0.7c-0.6-0.8-0.9-5-0.9-12.7   c0-0.7,0-1.4,0-2.2C268.7,36.3,269.1,31.2,269.8,30.1z"/>
	<path class="st0" d="M285.7,45.3c0-4.3-0.2-6.8-0.4-7.5c-0.3-0.6-1-0.9-2.4-0.9c-0.1,0-0.5,0-1.2,0c-1.1,0-2.1-0.2-3-0.5   c-0.9-0.3-1.4-0.7-1.6-1.3c-0.1-0.2-0.1-0.3-0.1-0.5c0-0.4,0.1-0.7,0.4-1.1c0.4-0.5,4.1-0.8,11-0.8c6.9,0,10.6,0.3,11,0.8   c0.3,0.4,0.5,0.8,0.5,1.2c0,0.7-0.6,1.3-1.9,1.8c-1.3,0.5-3,0.7-5,0.8c-0.7,0-1.7,0-3.1,0c0,5.4,0.2,10.8,0.6,16.3   c0.3,3.7,0.3,5.8-0.1,6.5c-0.3,0.6-0.9,0.9-1.7,0.9s-1.4-0.3-1.8-0.9C286.1,58.5,285.7,53.6,285.7,45.3z"/>
	<path class="st0" d="M305.9,32.7L305.9,32.7c1,0,1.5,0.6,1.6,1.9c0.1,1.3,0.2,3.7,0.4,7.3c0.2,4.6,0.4,7.8,0.8,9.6   c0.4,1.9,1.1,3.4,2.1,4.5c0.6,0.8,1.3,1.4,2,1.9c0.7,0.5,1.4,0.7,2.2,0.7c1.3,0,2.6-0.4,3.9-1.2c1.3-0.8,2.2-1.6,2.8-2.4   c0.4-0.6,0.7-1.5,0.8-2.5c0.1-1.1,0.2-3.1,0.2-6.1c0-4.8-0.2-8.1-0.5-9.8c-0.1-0.9-0.1-1.5,0.1-2c0.2-0.5,0.5-0.9,1-1.2   c1.9-1.1,3.1,0.2,3.5,3.8c0.4,2.1,0.6,5.1,0.6,8.9c0,5.2-0.6,8.9-1.9,11.1c-1.2,2.3-3.3,3.9-6.3,5c-1.4,0.5-2.5,0.8-3.5,0.9   c-0.3,0-0.5,0.1-0.8,0.1c-0.7,0-1.5-0.1-2.2-0.3c-2.9-0.6-4.9-2.1-6.1-4.5c-1.3-2.4-2.1-6.1-2.5-11c-0.3-2.9-0.5-5.3-0.5-7.4   c0-2.3,0.2-4.1,0.6-5.4C304,33.5,304.6,32.8,305.9,32.7z"/>
	<path class="st0" d="M346.5,61.5c-0.9-0.5-1.3-1.1-1.2-1.9c0.2-1.1-0.2-2.4-1.2-3.9c-0.8-1-2-2.2-3.7-3.4c-1.7-1.2-2.7-1.9-3.3-1.9   c-0.2,0-0.4,1.4-0.4,4.1c0,2.7-0.2,4.5-0.5,5.4c-0.3,0.9-0.8,1.3-1.7,1.4c-0.9,0.1-1.5-0.1-1.9-0.8c-0.4-0.8-0.7-5.7-0.9-14.9   c-0.1-4.9-0.2-8.4-0.2-10.4c0-0.7,0-1.3,0-1.7c0.1-1.3,0.4-2.2,0.9-2.6c0.7-0.6,1.5-1.1,2.6-1.5c0.6-0.2,1.3-0.3,2.1-0.3   c0.6,0,1.2,0,1.9,0.1c1.1,0.1,2.5,0.5,4.3,1.3c1.8,0.8,3.2,2.3,4.1,4.4c0.9,2.1,0.8,5.1-0.2,8.9c-0.3,0.9-1.1,2-2.4,3.4   c-0.3,0.3-0.7,0.7-1.3,1.3c0.3,0.2,0.9,0.6,1.7,1.2c1.9,1.4,3.1,3.1,3.7,4.9c0.4,1.6,0.6,2.9,0.6,3.9c0,1-0.3,1.8-0.7,2.3   C348.2,61.7,347.5,61.8,346.5,61.5z M336.6,33.2c-0.6,0-0.9,0.2-1,0.6c0,0.1,0,0.4,0,0.7c0,0.6,0,1.6,0.1,2.9   c0.3,3.2,0.4,5.3,0.4,6.1c0,0.8,0.1,1.3,0.3,1.5c0.2,0.1,0.7,0.2,1.6,0.2c1,0.1,1.9-0.1,2.7-0.4c0.8-0.4,1.5-1,2.2-1.8   c0.7-0.8,1-2.5,0.9-5c-0.1-2.5-1.6-4.1-4.6-4.7C338.3,33.3,337.4,33.2,336.6,33.2z"/>
	<path class="st0" d="M377.9,31c0,1-0.6,1.7-1.7,2c-1.2,0.3-3.8,0.6-7.9,0.6c-1.7,0-4.3,0.1-7.7,0.2c0.3,5.3,0.5,8.4,0.8,9.1   c0.1,0.5,1.7,0.7,4.7,0.7c4.9,0,7.4,0.7,7.5,2.2c0,0.6-0.3,1.1-0.9,1.7c-0.4,0.4-1,0.6-1.6,0.7c-0.7,0.1-2.2,0-4.5-0.1   c-1.2-0.1-2.9-0.2-5.1-0.4c0.2,5.7,0.4,8.8,0.8,9.3c0,0.2,2.5,0.2,7.6,0.1c5.1-0.1,8,0.3,8.6,1.2c0.4,0.5,0.6,1,0.6,1.6   c0,0.4-0.1,0.8-0.3,1.2c-0.4,1.1-1.7,1.6-3.8,1.5c-2.1,0-4,0-5.7,0.1c-1.2,0-2.3,0.1-3.3,0.1c-3.4,0-5.5-0.4-6.3-1.1   c-1-0.3-1.6-1.5-1.7-3.4c-0.1-0.5-0.2-1.4-0.3-2.9c-0.9-12.1-1.3-19.7-1.3-22.9c0-0.9,0-1.4,0.1-1.6c0.3-0.6,0.7-1.1,1.5-1.4   c0.4-0.1,2.1-0.2,5.2-0.2c1.2,0,2.6,0,4.3,0c5.8,0.1,9,0.3,9.7,0.5C377.7,30.1,377.9,30.4,377.9,31z"/>
	<path class="st0" d="M413.7,54.1c0-1.1-0.4-2.2-1.2-3.1c-0.8-0.9-2.2-2.2-4.3-3.8c-2.2-1.7-3.6-3-4.3-4.1c-0.7-1.1-1.3-2.2-1.7-3.5   c-0.6-2.7,0.2-5.2,2.2-7.5c0.6-0.7,1.4-1.2,2.2-1.7c0.6-0.3,1.3-0.4,2-0.4c0.3,0,0.6,0,0.9,0.1c2,0.2,3.6,0.8,5,2   c2.9,2.5,4.1,4.2,3.5,5.3c-1,1.5-2.7,1.2-5.2-0.9c-1.4-1.3-2.6-1.9-3.5-1.9c-0.9,0-1.6,0.5-2.2,1.5c-0.7,0.8-0.9,1.7-0.6,2.9   c0.3,1.2,1.7,2.7,4.1,4.5c3.4,2.6,5.6,4.9,6.6,6.8c0.6,1.2,1,2.3,1,3.6c0,0.9-0.1,1.7-0.4,2.6c-0.4,1-0.8,1.8-1.2,2.6   c-0.5,0.7-1.3,1.4-2.4,2.2c-1.5,0.8-3.1,1.2-4.9,1.2c-0.8,0-1.5-0.1-2.3-0.3c-2.7-0.4-4.7-1.7-5.9-3.8c-0.8-1.3-1.2-2.3-1.2-3.1   c0-0.4,0.1-0.7,0.4-1c0.7-0.7,1.8-0.2,3.5,1.5c1.2,0.9,2.3,1.6,3.6,2c1.2,0.5,2.7,0.3,4.5-0.4c0.9-0.5,1.4-1,1.6-1.5   C413.6,55.3,413.7,54.8,413.7,54.1z"/>
	<path class="st0" d="M424.1,30.1c0.2-0.4,0.5-0.6,0.9-0.6c0.2,0,0.4,0,0.7,0.1c0.7,0.3,1.2,0.9,1.3,1.7c0.3,1.4,0.4,5.9,0.4,13.6   c0,0.6,0,1.1,0,1.7c0,8.7-0.2,13.2-0.6,13.6c-0.5,0.4-1,0.6-1.5,0.6h-0.1c-0.6,0-1.1-0.2-1.4-0.7c-0.6-0.8-0.9-5-0.9-12.7   c0-0.7,0-1.4,0-2.2C422.9,36.3,423.3,31.2,424.1,30.1z"/>
	<path class="st0" d="M433.7,31.1c0.8,0,2.2,1.3,4.1,4c1.9,2.7,4.2,6.5,6.8,11.3c0.6,1.2,1.5,2.9,2.8,5.2c0.6-1.4,1.8-4.1,3.6-8.2   c2-4.6,3.5-7.7,4.5-9.3s2-2.4,3-2.4c0.9,0,1.4,0.2,1.6,0.6c1,1.6,1.8,7.8,2.2,18.7c0.2,3.9,0.3,6.5,0.3,7.8c0,0.3,0,0.5,0,0.6   c0,1-0.3,1.7-0.8,2.2c-0.5,0.4-0.9,0.6-1.3,0.6c-0.3,0-0.5-0.1-0.8-0.2c-0.6-0.3-1-1.1-1.2-2.2c-0.1-1.1-0.3-4.1-0.5-9.2   c-0.2-5.6-0.4-8.7-0.6-9.3c-0.2-0.3-0.6,0.3-1.3,1.6c-2,3.6-3.7,7.9-5.3,12.8c-0.6,1.8-1.2,3.2-1.9,4c-0.7,0.8-1.4,1-2,0.6   c-0.6-0.4-1.2-1.4-1.7-2.9c-0.3-1.1-1.6-4-4-8.6c-2.4-4.6-3.9-7.3-4.5-8.1c-0.4-0.4-0.6-0.3-0.7,0.3c-0.1,0.8,0,3.8,0.1,8.9   c0.1,4.5,0.2,7.4,0.1,8.6c-0.1,1.2-0.3,2-0.6,2.3c-0.3,0.3-0.6,0.4-0.8,0.4c-0.2,0-0.5-0.3-1-0.7c-0.7-0.7-1.3-2.4-1.6-5   c-0.3-2.6-0.5-6.9-0.6-12.8c0-1.4-0.1-2.7-0.1-3.8c0-4.2,0.2-6.5,0.6-7C432.4,31.4,433,31.1,433.7,31.1z"/>
	<path class="st0" d="M493.9,52.6c-1,3.8-3.4,6.7-7,8.5c-2.1,1.1-4.4,1.6-6.7,1.6c-1.7,0-3.5-0.3-5.3-0.9c-2.3-0.7-4.6-3.1-6.7-7.2   c-0.7-1.3-1.1-2.4-1.3-3.3c-0.2-0.9-0.3-2.1-0.3-3.8c0-2.4,0.2-4.3,0.5-5.8c0.4-1.4,1.1-2.9,2.1-4.5c1-1.6,2-2.7,2.9-3.5   c0.9-0.7,1.9-1.3,3.2-1.9c1.3-0.5,2.9-0.7,4.9-0.8c0.2,0,0.4,0,0.6,0c1.7,0,3.2,0.2,4.5,0.5c1.6,0.5,3.2,1.6,4.7,3.3   c1.5,1.7,2.6,3.6,3.3,5.8c0.5,1.9,0.9,4,0.9,6.2c0,0.5,0.1,1,0.1,1.5C494.4,50.1,494.2,51.5,493.9,52.6z M483.6,35.9   c-1.1-0.3-2.2-0.4-3.1-0.4c-2.2,0-4.2,0.7-5.8,2.2c-2.4,2.2-3.6,5.5-3.6,9.7c0,0.1,0,0.2,0,0.3c0,1.8,0.5,3.7,1.5,5.7   c1.1,2,2.3,3.4,3.6,4.2c1.2,0.6,2.4,0.9,3.7,0.9c1.1,0,2.2-0.2,3.4-0.6c2.7-0.9,4.5-2.3,5.6-4.3c0.6-1.1,0.9-2.8,1-5.3   c0-0.4,0-0.7,0.1-1.1c0-2-0.2-3.7-0.6-5c-0.5-1.4-1.2-2.8-2.3-4C485.8,36.9,484.7,36.2,483.6,35.9z"/>
	<path class="st0" d="M499.9,61.5c-0.9,0-1.5-1.5-1.7-4.4c0-0.6-0.1-1.3-0.1-2c0-2.5,0.3-5.3,0.8-8.5c0.5-3.5,0.8-6.6,0.8-9.3   c0-2.3,0.1-3.6,0.2-4c0.1-0.4,0.5-0.7,1.2-0.9c0.6-0.2,1-0.1,1.5,0.1c0.5,0.3,1.2,0.9,2,1.9c0.8,0.9,2.9,3.3,6.4,7.2   c3.5,3.9,6,6.6,7.3,8.1c0.3-11.2,0.6-17.4,0.9-18.3c0.3-0.4,0.9-0.6,1.7-0.6h0.1c0.8,0,1.3,0.2,1.6,0.6c0.1,0.4,0.3,2.6,0.4,6.8   c0.1,4.2,0.2,8.4,0.3,12.7c0.1,4.3,0.1,6.6,0.2,7c0,0.5,0.1,0.9,0.1,1.2c0,0.5,0,0.8-0.1,1c-0.1,0.3-0.5,0.5-1.2,0.6   c-0.6,0-1.1-0.1-1.5-0.4c-0.4-0.3-1-0.9-1.7-1.9c-3.9-5.6-8.8-11.5-14.9-17.7c-0.1,1-0.4,2.6-0.7,4.9c-0.3,2.2-0.6,4.2-0.9,6   c-0.2,1.8-0.4,3.3-0.4,4.5c-0.2,2.2-0.5,3.7-0.8,4.5C501,61.1,500.5,61.5,499.9,61.5z"/>
	<path class="st0" d="M548.8,31c0,1-0.6,1.7-1.7,2c-1.2,0.3-3.8,0.6-7.9,0.6c-1.7,0-4.3,0.1-7.7,0.2c0.3,5.3,0.5,8.4,0.8,9.1   c0.1,0.5,1.7,0.7,4.7,0.7c4.9,0,7.4,0.7,7.5,2.2c0,0.6-0.3,1.1-0.9,1.7c-0.4,0.4-1,0.6-1.6,0.7c-0.7,0.1-2.2,0-4.5-0.1   c-1.2-0.1-2.9-0.2-5.1-0.4c0.2,5.7,0.4,8.8,0.8,9.3c0,0.2,2.5,0.2,7.6,0.1c5.1-0.1,8,0.3,8.6,1.2c0.4,0.5,0.6,1,0.6,1.6   c0,0.4-0.1,0.8-0.3,1.2c-0.4,1.1-1.7,1.6-3.8,1.5c-2.1,0-4,0-5.7,0.1c-1.2,0-2.3,0.1-3.3,0.1c-3.4,0-5.5-0.4-6.3-1.1   c-1-0.3-1.6-1.5-1.7-3.4c-0.1-0.5-0.2-1.4-0.3-2.9c-0.9-12.1-1.3-19.7-1.3-22.9c0-0.9,0-1.4,0.1-1.6c0.3-0.6,0.7-1.1,1.5-1.4   c0.4-0.1,2.1-0.2,5.2-0.2c1.2,0,2.6,0,4.3,0c5.8,0.1,9,0.3,9.7,0.5C548.5,30.1,548.8,30.4,548.8,31z"/>
</g>
<g>
	<g>
		<path class="st1" d="M99.7,56.9l-19.8-9.8L75.8,8.9L36.6,5.9L24.2,47.3L0,53.7l1.8,15.8l8.5-0.5l89.9,1.4L99.7,56.9z M32.7,49.3    l8.4-34.8l29.2,2.2L72,51.5L32.7,49.3z"/>
		<polygon class="st2" points="41.1,14.6 32.7,49.3 72,51.5 70.3,16.7   "/>
	</g>
	<g>
		<g>
			<g>
				<g>
					<g>
						<g>
							<path class="st0" d="M58.8,74.3c0,4,3.2,7.2,7.2,7.2c4,0,7.2-3.2,7.2-7.2c0-4-3.2-7.2-7.2-7.2C62,67.1,58.8,70.3,58.8,74.3z          M62.2,74.3c0-2.1,1.7-3.8,3.8-3.8c2.1,0,3.8,1.7,3.8,3.8c0,2.1-1.7,3.8-3.8,3.8C63.9,78.1,62.2,76.4,62.2,74.3z"/>
						</g>
					</g>
					<g>
						<g>
							<path class="st0" d="M26.8,74.3c0,4,3.2,7.2,7.2,7.2c4,0,7.2-3.2,7.2-7.2c0-4-3.2-7.2-7.2-7.2C30,67.1,26.8,70.3,26.8,74.3z          M30.2,74.3c0-2.1,1.7-3.8,3.8-3.8c2.1,0,3.8,1.7,3.8,3.8c0,2.1-1.7,3.8-3.8,3.8C31.9,78.1,30.2,76.4,30.2,74.3z"/>
						</g>
					</g>
				</g>
			</g>
			<g>
				<circle class="st2" cx="66" cy="74.3" r="3.8"/>
				<circle class="st2" cx="34" cy="74.3" r="3.8"/>
			</g>
		</g>
	</g>
	<path class="st0" d="M94,19.8l-11.5-5c-0.9-0.4-1.2-1.4-0.9-2.2l0.2-0.4c0.4-0.9,1.4-1.2,2.2-0.9l11.5,5c0.9,0.4,1.2,1.4,0.9,2.2   l-0.2,0.4C95.8,19.8,94.8,20.1,94,19.8z"/>
	<path class="st0" d="M69.2,60.2L68.6,60c-0.4-0.2-0.6-0.7-0.4-1.1l18.1-41.7c0.2-0.4,0.7-0.6,1.1-0.4L88,17   c0.4,0.2,0.6,0.7,0.4,1.1L70.3,59.8C70.2,60.2,69.7,60.4,69.2,60.2z"/>
	<path class="st3" d="M43.2,30.6L58.5,21L67,35.3c0,0,0-0.3-0.4,11.1c0,0-3.9,3.5-9.5,3.8c-5.6,0.4-12.4,0.2-13.5-0.2   c-1.2-0.2-4.5,0-3.1-5.4C40.5,44.7,41.8,30.7,43.2,30.6z"/>
	<path class="st4" d="M48.3,42.8c0,0,7.7,7.2,12.4,0"/>
	<ellipse cx="50.4" cy="37.6" rx="1.3" ry="1.9"/>
	<ellipse cx="57.8" cy="37.6" rx="1.3" ry="1.9"/>
	<path class="st5" d="M55.8,22.8c0,0,0.7,9.1-8.8,9.7c-6.3,0.4-5.4,7.1-5.4,7.1s-10.5-2.4-9.7-12.3S43,12.5,45.5,12.7   c2.4,0.2-1.5-7.7,1.9-11c3.2-3.2,16-2,11.8,7.1c-2.4,5.2,3.6,2.8,7.9,6.4s7.9,6.4,5.6,17.4c-1.7,8.5-5.3,7.9-5.3,7.9l1.2-5.2   c0,0-2.4,2.1-4.7,1.5C58.6,35.5,57.8,25.2,55.8,22.8z"/>
	<path class="st3" d="M64.2,50.5l11-10c0,0,1.4-1.7,0.8-1.9c-0.5-0.2,0.5-4.6,1.8-5c1.3-0.3,2.7,1.2,2.7,1.2s1.9,2.6,1.9,3.4   c0,0.8,1.3,2.8-3,2.5c-4.2-0.3-11.7,11.1-11.7,11.1l-3.9-0.4L64.2,50.5z"/>
</g>
<g>
	<path class="st0" d="M573.8,61.1c0,0.7-0.1,1.2-0.3,1.4c-0.2,0.2-0.7,0.3-1.4,0.3c-0.9,0-1.5-0.3-1.8-0.8c-0.1-0.2-0.2-0.5-0.2-0.8   c0-0.4,0.1-0.8,0.3-1.2c0.2-0.5,0.6-0.7,1.2-0.7c0.2,0,0.4,0,0.5,0c0.7,0,1.1,0.2,1.3,0.5C573.7,59.9,573.8,60.4,573.8,61.1z    M571,31.5c0.3-0.6,0.7-1,1.2-1c0.1,0,0.2,0,0.3,0c0.7,0.1,1.2,0.6,1.5,1.4c0.3,0.8,0.5,4,0.5,9.6c0,0.7,0,1.4,0,2.1   c0,4.5-0.1,7.5-0.4,9c-0.2,0.9-0.4,1.5-0.6,1.8c-0.2,0.3-0.5,0.5-0.9,0.5c-0.2,0-0.3,0.1-0.5,0.1c-1,0-1.5-0.6-1.8-1.8   c-0.1-0.9-0.2-2.6-0.2-5.2c0-1.5,0-3.2,0.1-5.1C570.5,36,570.7,32.1,571,31.5z"/>
</g>
<g>
</g>
<g>
</g>
<g>
</g>
<g>
</g>
<g>
</g>
<g>
</g>
<g>
</g>
</svg>